<?xml version="1.0" encoding="ISO-8859-1" standalone="no"?><svg xmlns="http://www.w3.org/2000/svg" xmlns:xlink="http://www.w3.org/1999/xlink" id="Layer_1" style="" version="1.1" viewBox="-23.855 -14.363 524.810 315.986" x="0px" xml:space="preserve" y="0px">
<path d="M24.19,214.13c-3.093,2.706-7.081,4.167-11.19,4.1c-6.93,0-13-4.64-13-11.9  c0-5.56,4.15-9.17,8.84-11.35c-1.91-2.12-3.44-4.53-3.44-7.48c0-6.06,5.51-9.87,11.14-9.87c5.83,0,11,3.87,11,10.09  c0,4.53-2.78,7.7-6.66,9.66l4,4.86c0.759-1.148,1.245-2.455,1.42-3.82h8c-0.357,3.548-1.868,6.882-4.3,9.49l8.18,9.5H26.91  L24.19,214.13z M13.49,201.13c-1.91,0.88-4.53,2.79-4.53,5.14c0,2.72,2.62,4.47,5.13,4.47c1.75,0,3.71-1.42,5.18-2.79L13.49,201.13z   M19.98,187.13c0.007-1.657-1.331-3.005-2.988-3.012c-0.094,0-0.188,0.004-0.282,0.012c-1.642-0.034-3.006,1.259-3.06,2.9  c0,2.13,1.53,3.38,2.73,4.91C18.29,190.81,19.98,189.51,19.98,187.13z M81.92,192.31c-0.55-3.93-3.61-6-7.86-6  c-6.55,0-9.06,5.78-9.06,11.57s2.51,11.57,9.06,11.57c4.74,0,7.48-2.73,7.86-7.21h10.14c-0.54,10.05-7.9,15.94-17.78,15.94  c-11.79,0-19.43-9-19.43-20.3s7.64-20.3,19.43-20.3c8.4,0,17.51,5.34,17.78,14.73L81.92,192.31z M109.52,188.22  c8.79,0,15,6.49,15,15s-6.17,15-15,15s-14.89-6.44-14.89-15s6.11-14.97,14.88-14.97L109.52,188.22z M109.51,211.13  c4.32,0,5.68-4.26,5.68-7.87s-1.36-7.91-5.68-7.91s-5.62,4.31-5.62,7.91S105.21,211.13,109.51,211.13z M128.23,189.08h9v3.87h0.11  c1.688-2.898,4.786-4.684,8.14-4.69c3.54,0,6.7,1.14,8.23,4.59c1.972-2.936,5.304-4.666,8.84-4.59c9,0,10,6.82,10,12.22v16.92h-9.28  v-16.65c0-3.06-1.47-4.86-3.87-4.86c-4,0-4.37,3.05-4.37,7.64v13.86h-9.27v-16.1c0-3.33-1-5.4-3.5-5.4c-3.33,0-4.74,1.91-4.74,7.69  v13.81h-9.28L128.23,189.08z M177.67,189.08h8.84v3.27h0.11c1.71-2.629,4.665-4.179,7.8-4.09c8.89,0,12.66,7.64,12.66,15.61  c0,7.36-3.93,14.35-12,14.35c-3.171,0.141-6.202-1.311-8.08-3.87h-0.11v12.54h-9.27L177.67,189.08z M186.67,202.94  c0,5,1.41,8.19,5.62,8.19s5.57-4.32,5.57-8.19c0-3.6-1.43-7.59-5.52-7.59c-2.55-0.01-5.71,1.78-5.71,7.58L186.67,202.94z   M210.62,197.81c-0.001-3.141,1.687-6.041,4.42-7.59c2.785-1.409,5.88-2.097,9-2c6.72,0,13.21,1.48,13.21,9.49v12.42  c0,2.4,0,5,1.09,7.26h-9.33c-0.294-0.867-0.479-1.767-0.55-2.68c-2.508,2.382-5.874,3.645-9.33,3.5c-5.4,0-9.66-2.73-9.66-8.57  c0-9.22,10.05-8.51,16.49-9.82c1.58-0.33,2.45-0.88,2.45-2.62c0-2.13-2.57-2.95-4.47-2.95c-2.57,0-4.21,1.15-4.64,3.55  L210.62,197.81z M222.62,212.49c4.41,0,5.89-2.51,5.67-8.35c-1.31,0.82-3.71,1-5.73,1.53s-3.82,1.36-3.82,3.6s1.77,3.21,3.85,3.21  L222.62,212.49z M242.26,189.08h9v3.87h0.11c1.69-2.89,5.52-4.69,8.89-4.69c9.45,0,10.21,6.88,10.21,11v18.17h-9.28v-13.7  c0-3.87,0.44-7.8-4.64-7.8c-3.49,0-5,2.95-5,6.06v15.44h-9.27L242.26,189.08z M290.99,219.91c-2.24,6.22-5.57,7-11.85,7h-4.36v-7.53  H278c2.13,0,3.71-1.2,3.71-3.16c0-1.53-1.8-5.89-2.35-7.42l-7.31-19.7h9.82l5.35,18.44h0.11l5.35-18.44h9.5L290.99,219.91z   M1.26,249.01h9v3.87h0.11c1.69-2.89,5.51-4.7,8.89-4.7c9.44,0,10.21,6.89,10.21,11v18.15H20.2v-13.7c0-3.88,0.44-7.8-4.64-7.8  c-3.49,0-5,2.94-5,6.05v15.45h-9.3V249.01z M50,279.84c-2.24,6.22-5.57,7-11.85,7h-4.36v-7.53h3.22c2.12,0,3.71-1.2,3.71-3.16  c0-1.53-1.8-5.9-2.35-7.42l-7.31-19.7h9.82l5.35,18.44h0.11l5.35-18.44h9.49L50,279.84z M81.21,259.38  c-0.145-2.371-2.157-4.191-4.53-4.1c-5.19,0-6,4.42-6,8.35c0,3.66,1.59,7.42,5.51,7.42c3.23,0,4.86-1.85,5.3-4.85h9  c-0.83,7.58-6.72,11.93-14.25,11.93c-8.51,0-14.85-5.84-14.85-14.52c0-9,5.74-15.45,14.85-15.45c7,0,13.32,3.71,14,11.2  L81.21,259.38z M121.42,273.89c0,4.64-0.87,13.37-14.13,13.37c-6.61,0-12.83-1.47-13.92-9.06h9.28  c0.064,1.039,0.662,1.969,1.58,2.46c1.065,0.46,2.222,0.665,3.38,0.6c4.43,0,4.86-3.11,4.86-6.61v-2.67h-0.11  c-1.644,2.57-4.479,4.133-7.53,4.15c-8.57,0-12.44-6.12-12.44-14.08c0-7.53,4.42-13.87,12.44-13.87  c3.161-0.127,6.113,1.573,7.59,4.37h0.09v-3.54h8.89L121.42,273.89z M107.07,255.28c-4.1,0-5.4,3.6-5.4,7.09  c0,3.33,1.52,6.67,5.34,6.67s5.63-3.07,5.63-6.62S111.22,255.28,107.07,255.28L107.07,255.28z M139.81,248.18  c8.79,0,14.95,6.5,14.95,15s-6.16,14.95-14.95,14.95s-14.9-6.45-14.9-14.95S131.02,248.18,139.81,248.18L139.81,248.18z   M139.81,271.05c4.31,0,5.68-4.25,5.68-7.85s-1.37-7.92-5.68-7.92s-5.62,4.31-5.62,7.92S135.51,271.05,139.81,271.05z   M158.96,267.18h10.15v10.15h-10.15V267.18z M193.12,259.38c-0.14-2.373-2.155-4.197-4.53-4.1c-5.18,0-6,4.42-6,8.35  c0,3.66,1.58,7.42,5.51,7.42c3.22,0,4.86-1.85,5.29-4.85h9c-0.82,7.58-6.71,11.95-14.24,11.95c-8.52,0-14.85-5.84-14.85-14.52  c0-9,5.73-15.45,14.85-15.45c7,0,13.31,3.71,14,11.2L193.12,259.38z M219.51,248.18c8.78,0,14.95,6.5,14.95,15  c0.258,7.998-6.016,14.692-14.015,14.95c-0.312,0.01-0.623,0.01-0.935,0c-8.79,0-14.9-6.45-14.9-14.95S210.69,248.18,219.51,248.18z   M219.51,271.05c4.31,0,5.67-4.25,5.67-7.85s-1.36-7.92-5.67-7.92s-5.63,4.31-5.63,7.92S215.16,271.05,219.51,271.05L219.51,271.05z   M238.22,249.05h9v3.87h0.1c1.685-2.898,4.778-4.686,8.13-4.7c3.55,0,6.72,1.15,8.25,4.59c1.97-2.939,5.303-4.67,8.84-4.59  c9,0,10,6.83,10,12.23v16.88h-9.27v-16.65c0-3.05-1.48-4.85-3.88-4.85c-4,0-4.37,3.05-4.37,7.64v13.86h-9.31v-16.11  c0-3.32-1-5.39-3.5-5.39c-3.32,0-4.74,1.9-4.74,7.69v13.81h-9.28L238.22,249.05z" style="fill:#231F20;"/>
<path d="M467.11,69.13l9.9-9.77V29.69L447.32,0h-99l-29.69,29.69V9.9l-9.9-9.9h-39.55l-9.89,9.9v19.79  l-19.78,19.79l-19.79-19.79V9.9l-9.9-9.9h-39.6l-9.9,9.9l-9.9-9.9h-39.58l-9.9,9.9v39.58L51.51,0H11.87L1.98,9.9v138.55l9.89,9.89  h39.64l9.9-9.89v-39.59l49.48,49.48h39.58l9.9-9.89V69.28l49.48,49.48v29.69l9.9,9.89h39.59l9.89-9.89v-29.69l49.49-49.48v59.37  l29.69,29.69h99l29.69-29.69V98.96l-9.9-9.9h-49.57v9.9h-39.59V59.38h39.59v9.75H467.11z M462.04,8.43h1.67v-7h2.8V0.01h-7.18v1.41  h2.76L462.04,8.43z M469.44,1.64l2.35,6.79h1.35l2.31-6.79v6.79H477V0.01h-2.42l-2.14,6l-2.14-6h-2.41v8.42h1.55L469.44,1.64z" style="fill:#231F20;"/>
</svg>